# xmcd
#
# Track frame offsets:
#	150
#	15005
#	31485
#	44892
#	65267
#	80972
#	102512
#	119855
#	133605
#	150892
#	168115
#
# Disc length: 2487 seconds
#
# Revision: 1
# Processed by: cddbd v1.5.2PL0 Copyright (c) Steve Scherf et al.
# Submitted via: EZCDAudioConverter 6.0.2.1
#
DISCID=8d09b50b
DTITLE=Blackhawk - Spirit Dancer
DYEAR=2002
DGENRE=Country
TTITLE0=One Love
TTITLE1=One Night in New Orleans
TTITLE2=Days of America
TTITLE3=Spirit Dancer
TTITLE4=I Will
TTITLE5=Brothers of the Southland
TTITLE6=Gloryland
TTITLE7=Forgiveness
TTITLE8=Faith is the Light
TTITLE9=I'll Always Love You
TTITLE10=Leavin' the Land of the Broken Hearted
EXTD=
EXTT0=
EXTT1=
EXTT2=
EXTT3=
EXTT4=
EXTT5=
EXTT6=
EXTT7=
EXTT8=
EXTT9=
EXTT10=
PLAYORDER=
